<svg width="18" height="20" viewBox="0 0 18 20" fill="none" xmlns="http://www.w3.org/2000/svg">
<path d="M6.04445 0C2.04444 0 0 2.86567 0 5.8209C0 8.2388 1.48148 10.6567 4.62222 11.403L11.6444 13.0448C12.3259 13.194 12.6519 13.6418 12.6519 14.1194C12.6519 14.6567 12.2074 15.2239 11.4667 15.2239H0.8V20H11.6444C15.7037 20 17.7778 17.0448 17.7778 14.0299C17.7778 11.5821 16.3259 9.16418 13.1556 8.41791L6.16296 6.80597C5.57037 6.65672 5.24445 6.1791 5.24445 5.73134C5.24445 5.22388 5.6 4.77612 6.37037 4.77612H16.4444V0H6.04445Z" fill="black"/>
</svg>
