<svg width="11" height="12" viewBox="0 0 11 12" fill="none" xmlns="http://www.w3.org/2000/svg">
<path d="M3.65373 0C1.23582 0 0 1.7194 0 3.49254C0 4.94328 0.895523 6.39403 2.79403 6.84179L7.03881 7.82686C7.45075 7.91642 7.64776 8.18507 7.64776 8.47164C7.64776 8.79403 7.37911 9.13433 6.93134 9.13433H0.483582V12H7.03881C9.49254 12 10.7463 10.2269 10.7463 8.41791C10.7463 6.94925 9.86866 5.49851 7.95224 5.05075L3.72537 4.08358C3.36716 3.99403 3.17015 3.70746 3.17015 3.43881C3.17015 3.13433 3.38507 2.86567 3.85075 2.86567H9.9403V0H3.65373Z" fill="black"/>
</svg>
