<svg width="72" height="20" viewBox="0 0 72 20" fill="none" xmlns="http://www.w3.org/2000/svg">
<path d="M5.82857 0.428573C1.97143 0.428573 0 3.17143 0 6C0 8.31429 1.42857 10.6286 4.45714 11.3429L11.2286 12.9143C11.8857 13.0571 12.2 13.4857 12.2 13.9429C12.2 14.4571 11.7714 15 11.0571 15H0.771429V19.5714H11.2286C15.1429 19.5714 17.1429 16.7429 17.1429 13.8571C17.1429 11.5143 15.7429 9.2 12.6857 8.48571L5.94286 6.94286C5.37143 6.8 5.05714 6.34286 5.05714 5.91429C5.05714 5.42857 5.4 5 6.14286 5H15.8571V0.428573H5.82857Z" fill="white"/>
<path d="M19.1328 19.5714H33.2757V15H23.8471V0.428573H19.1328V19.5714Z" fill="white"/>
<path d="M43.4569 20C49.6855 20 53.5998 15.4857 53.5998 10.0571C53.5998 4.57143 49.6569 0 43.4569 0C37.2283 0 33.3141 4.57143 33.3141 10.0571C33.3141 15.4857 37.2283 20 43.4569 20ZM43.4569 15.3714C40.0569 15.3714 38.1141 12.8286 38.1141 10C38.1141 7.11429 40.0855 4.62857 43.4569 4.62857C46.8283 4.62857 48.7998 7.11429 48.7998 10C48.7998 12.8571 46.8283 15.3714 43.4569 15.3714Z" fill="white"/>
<path d="M53.9022 0.428573V5H60.1022V19.5714H64.8165V5H71.0165V0.428573H53.9022Z" fill="white"/>
</svg>
